<mxfile host="app.diagrams.net" modified="2023-06-08T15:20:48.557Z" agent="Mozilla/5.0 (Windows NT 10.0; Win64; x64) AppleWebKit/537.36 (KHTML, like Gecko) Chrome/112.0.0.0 Safari/537.36" etag="T7kN9tzmIKFxyUNd6ki4" version="21.3.7" type="device">
  <diagram name="Page-1" id="edf60f1a-56cd-e834-aa8a-f176f3a09ee4">
    <mxGraphModel dx="2490" dy="727" grid="1" gridSize="10" guides="1" tooltips="1" connect="1" arrows="1" fold="1" page="1" pageScale="1" pageWidth="1100" pageHeight="850" background="#FFFFFF" math="0" shadow="0">
      <root>
        <mxCell id="0" />
        <mxCell id="1" parent="0" />
        <mxCell id="73vk_XXv5r2aGFsTNIzU-1" value="&lt;h1&gt;Flowchart&lt;/h1&gt;" style="text;html=1;strokeColor=none;fillColor=none;spacing=5;spacingTop=-20;whiteSpace=wrap;overflow=hidden;rounded=0;" vertex="1" parent="1">
          <mxGeometry x="210" y="80" width="190" height="40" as="geometry" />
        </mxCell>
        <mxCell id="73vk_XXv5r2aGFsTNIzU-2" value="&lt;h1&gt;Pseudo-code&lt;/h1&gt;" style="text;html=1;strokeColor=none;fillColor=none;spacing=5;spacingTop=-20;whiteSpace=wrap;overflow=hidden;rounded=0;" vertex="1" parent="1">
          <mxGeometry x="680" y="80" width="190" height="40" as="geometry" />
        </mxCell>
        <mxCell id="73vk_XXv5r2aGFsTNIzU-3" value="Begin&lt;br&gt;&lt;span style=&quot;&quot;&gt;&lt;span style=&quot;&quot;&gt;&amp;nbsp;&amp;nbsp;&amp;nbsp;&amp;nbsp;&lt;/span&gt;&lt;/span&gt;Input Score&lt;br&gt;&lt;span style=&quot;&quot;&gt;&lt;span style=&quot;&quot;&gt;&amp;nbsp;&amp;nbsp;&amp;nbsp;&amp;nbsp;&lt;/span&gt;&lt;/span&gt;If Score &amp;gt;= 75:&lt;br&gt;&lt;span style=&quot;&quot;&gt;&lt;span style=&quot;&quot;&gt;&amp;nbsp;&amp;nbsp;&amp;nbsp;&amp;nbsp;&lt;/span&gt;&lt;/span&gt;&lt;span style=&quot;&quot;&gt;&lt;span style=&quot;&quot;&gt;&amp;nbsp;&amp;nbsp;&amp;nbsp;&amp;nbsp;&lt;/span&gt;&lt;/span&gt;Display &#39;Grade A&#39;&lt;br&gt;&amp;nbsp; &amp;nbsp; ElseIf Score &amp;gt;= 60 and Score &amp;lt; 75:&lt;br style=&quot;border-color: var(--border-color);&quot;&gt;&lt;span style=&quot;border-color: var(--border-color);&quot;&gt;&lt;span style=&quot;&quot;&gt;&amp;nbsp;&amp;nbsp;&amp;nbsp;&amp;nbsp;&lt;/span&gt;&lt;/span&gt;&lt;span style=&quot;border-color: var(--border-color);&quot;&gt;&lt;span style=&quot;&quot;&gt;&amp;nbsp;&amp;nbsp;&amp;nbsp;&amp;nbsp;&lt;/span&gt;&lt;/span&gt;Display &#39;Grade B&#39;&lt;br&gt;&amp;nbsp; &amp;nbsp; &amp;nbsp;ElseIf Score &amp;gt;= 45 and Score &amp;lt; 60:&lt;br style=&quot;border-color: var(--border-color);&quot;&gt;&lt;span style=&quot;border-color: var(--border-color);&quot;&gt;&lt;span style=&quot;&quot;&gt;&amp;nbsp;&amp;nbsp;&amp;nbsp;&amp;nbsp;&lt;/span&gt;&lt;/span&gt;&lt;span style=&quot;border-color: var(--border-color);&quot;&gt;&lt;span style=&quot;&quot;&gt;&amp;nbsp;&amp;nbsp;&amp;nbsp;&amp;nbsp;&lt;/span&gt;&lt;/span&gt;Display &#39;Grade C&#39;&lt;br&gt;&amp;nbsp; &amp;nbsp; ElseIf Score &amp;gt;=35 and Score &amp;lt; 45:&lt;br style=&quot;border-color: var(--border-color);&quot;&gt;&lt;span style=&quot;border-color: var(--border-color);&quot;&gt;&lt;span style=&quot;&quot;&gt;&amp;nbsp;&amp;nbsp;&amp;nbsp;&amp;nbsp;&lt;/span&gt;&lt;/span&gt;&lt;span style=&quot;border-color: var(--border-color);&quot;&gt;&lt;span style=&quot;&quot;&gt;&amp;nbsp;&amp;nbsp;&amp;nbsp;&amp;nbsp;&lt;/span&gt;&lt;/span&gt;Display &#39;Grade D&#39;&lt;br&gt;&amp;nbsp; &amp;nbsp; &amp;nbsp;Else:&lt;br style=&quot;border-color: var(--border-color);&quot;&gt;&lt;span style=&quot;border-color: var(--border-color);&quot;&gt;&lt;span style=&quot;&quot;&gt;&amp;nbsp;&amp;nbsp;&amp;nbsp;&amp;nbsp;&lt;/span&gt;&lt;/span&gt;&lt;span style=&quot;border-color: var(--border-color);&quot;&gt;&lt;span style=&quot;&quot;&gt;&amp;nbsp;&amp;nbsp;&amp;nbsp;&amp;nbsp;&lt;/span&gt;&lt;/span&gt;Display &#39;Grade E&#39;&lt;br&gt;End" style="text;html=1;strokeColor=none;fillColor=none;align=left;verticalAlign=middle;whiteSpace=wrap;rounded=0;" vertex="1" parent="1">
          <mxGeometry x="680" y="150" width="270" height="190" as="geometry" />
        </mxCell>
        <mxCell id="73vk_XXv5r2aGFsTNIzU-6" value="" style="edgeStyle=orthogonalEdgeStyle;rounded=0;orthogonalLoop=1;jettySize=auto;html=1;" edge="1" parent="1" source="73vk_XXv5r2aGFsTNIzU-4" target="73vk_XXv5r2aGFsTNIzU-5">
          <mxGeometry relative="1" as="geometry" />
        </mxCell>
        <mxCell id="73vk_XXv5r2aGFsTNIzU-4" value="Begin" style="ellipse;whiteSpace=wrap;html=1;" vertex="1" parent="1">
          <mxGeometry x="210" y="120" width="120" height="40" as="geometry" />
        </mxCell>
        <mxCell id="73vk_XXv5r2aGFsTNIzU-8" style="edgeStyle=orthogonalEdgeStyle;rounded=0;orthogonalLoop=1;jettySize=auto;html=1;exitX=0.5;exitY=1;exitDx=0;exitDy=0;entryX=0.5;entryY=0;entryDx=0;entryDy=0;" edge="1" parent="1" source="73vk_XXv5r2aGFsTNIzU-5" target="73vk_XXv5r2aGFsTNIzU-7">
          <mxGeometry relative="1" as="geometry" />
        </mxCell>
        <mxCell id="73vk_XXv5r2aGFsTNIzU-5" value="Input Score" style="shape=parallelogram;perimeter=parallelogramPerimeter;whiteSpace=wrap;html=1;fixedSize=1;" vertex="1" parent="1">
          <mxGeometry x="190" y="180" width="160" height="50" as="geometry" />
        </mxCell>
        <mxCell id="73vk_XXv5r2aGFsTNIzU-21" value="" style="edgeStyle=orthogonalEdgeStyle;rounded=0;orthogonalLoop=1;jettySize=auto;html=1;" edge="1" parent="1" source="73vk_XXv5r2aGFsTNIzU-7" target="73vk_XXv5r2aGFsTNIzU-10">
          <mxGeometry relative="1" as="geometry" />
        </mxCell>
        <mxCell id="73vk_XXv5r2aGFsTNIzU-23" value="" style="edgeStyle=orthogonalEdgeStyle;rounded=0;orthogonalLoop=1;jettySize=auto;html=1;" edge="1" parent="1" source="73vk_XXv5r2aGFsTNIzU-7" target="73vk_XXv5r2aGFsTNIzU-22">
          <mxGeometry relative="1" as="geometry" />
        </mxCell>
        <mxCell id="73vk_XXv5r2aGFsTNIzU-7" value="Score &amp;gt;= 75" style="rhombus;whiteSpace=wrap;html=1;" vertex="1" parent="1">
          <mxGeometry x="195" y="250" width="150" height="70" as="geometry" />
        </mxCell>
        <mxCell id="73vk_XXv5r2aGFsTNIzU-9" style="edgeStyle=orthogonalEdgeStyle;rounded=0;orthogonalLoop=1;jettySize=auto;html=1;exitX=0.5;exitY=1;exitDx=0;exitDy=0;" edge="1" parent="1" source="73vk_XXv5r2aGFsTNIzU-7" target="73vk_XXv5r2aGFsTNIzU-7">
          <mxGeometry relative="1" as="geometry" />
        </mxCell>
        <mxCell id="73vk_XXv5r2aGFsTNIzU-20" value="" style="edgeStyle=orthogonalEdgeStyle;rounded=0;orthogonalLoop=1;jettySize=auto;html=1;" edge="1" parent="1" source="73vk_XXv5r2aGFsTNIzU-10" target="73vk_XXv5r2aGFsTNIzU-11">
          <mxGeometry relative="1" as="geometry" />
        </mxCell>
        <mxCell id="73vk_XXv5r2aGFsTNIzU-29" value="" style="edgeStyle=orthogonalEdgeStyle;rounded=0;orthogonalLoop=1;jettySize=auto;html=1;" edge="1" parent="1" source="73vk_XXv5r2aGFsTNIzU-10" target="73vk_XXv5r2aGFsTNIzU-24">
          <mxGeometry relative="1" as="geometry" />
        </mxCell>
        <mxCell id="73vk_XXv5r2aGFsTNIzU-10" value="Score &amp;gt;= 60&lt;br&gt;Score &amp;lt; 75" style="rhombus;whiteSpace=wrap;html=1;" vertex="1" parent="1">
          <mxGeometry x="195" y="355" width="150" height="70" as="geometry" />
        </mxCell>
        <mxCell id="73vk_XXv5r2aGFsTNIzU-19" value="" style="edgeStyle=orthogonalEdgeStyle;rounded=0;orthogonalLoop=1;jettySize=auto;html=1;" edge="1" parent="1" source="73vk_XXv5r2aGFsTNIzU-11" target="73vk_XXv5r2aGFsTNIzU-12">
          <mxGeometry relative="1" as="geometry" />
        </mxCell>
        <mxCell id="73vk_XXv5r2aGFsTNIzU-30" value="" style="edgeStyle=orthogonalEdgeStyle;rounded=0;orthogonalLoop=1;jettySize=auto;html=1;" edge="1" parent="1" source="73vk_XXv5r2aGFsTNIzU-11" target="73vk_XXv5r2aGFsTNIzU-25">
          <mxGeometry relative="1" as="geometry" />
        </mxCell>
        <mxCell id="73vk_XXv5r2aGFsTNIzU-11" value="Score &amp;gt;= 45&lt;br&gt;Score &amp;lt; 60" style="rhombus;whiteSpace=wrap;html=1;" vertex="1" parent="1">
          <mxGeometry x="195" y="470" width="150" height="70" as="geometry" />
        </mxCell>
        <mxCell id="73vk_XXv5r2aGFsTNIzU-33" value="" style="edgeStyle=orthogonalEdgeStyle;rounded=0;orthogonalLoop=1;jettySize=auto;html=1;" edge="1" parent="1" source="73vk_XXv5r2aGFsTNIzU-12" target="73vk_XXv5r2aGFsTNIzU-26">
          <mxGeometry relative="1" as="geometry" />
        </mxCell>
        <mxCell id="73vk_XXv5r2aGFsTNIzU-48" style="edgeStyle=orthogonalEdgeStyle;rounded=0;orthogonalLoop=1;jettySize=auto;html=1;exitX=0.5;exitY=1;exitDx=0;exitDy=0;entryX=0.5;entryY=0;entryDx=0;entryDy=0;" edge="1" parent="1" source="73vk_XXv5r2aGFsTNIzU-12" target="73vk_XXv5r2aGFsTNIzU-27">
          <mxGeometry relative="1" as="geometry" />
        </mxCell>
        <mxCell id="73vk_XXv5r2aGFsTNIzU-12" value="Score &amp;gt;= 35&lt;br&gt;Score &amp;lt; 45" style="rhombus;whiteSpace=wrap;html=1;" vertex="1" parent="1">
          <mxGeometry x="195" y="580" width="150" height="70" as="geometry" />
        </mxCell>
        <mxCell id="73vk_XXv5r2aGFsTNIzU-15" value="End" style="ellipse;whiteSpace=wrap;html=1;" vertex="1" parent="1">
          <mxGeometry x="210" y="766" width="120" height="40" as="geometry" />
        </mxCell>
        <mxCell id="73vk_XXv5r2aGFsTNIzU-36" style="edgeStyle=orthogonalEdgeStyle;rounded=0;orthogonalLoop=1;jettySize=auto;html=1;exitX=1;exitY=0.5;exitDx=0;exitDy=0;entryX=1;entryY=0.5;entryDx=0;entryDy=0;" edge="1" parent="1" source="73vk_XXv5r2aGFsTNIzU-22" target="73vk_XXv5r2aGFsTNIzU-15">
          <mxGeometry relative="1" as="geometry">
            <Array as="points">
              <mxPoint x="560" y="285" />
              <mxPoint x="560" y="786" />
            </Array>
          </mxGeometry>
        </mxCell>
        <mxCell id="73vk_XXv5r2aGFsTNIzU-22" value="Display &#39;Grade A&#39;" style="shape=parallelogram;perimeter=parallelogramPerimeter;whiteSpace=wrap;html=1;fixedSize=1;" vertex="1" parent="1">
          <mxGeometry x="370" y="255" width="140" height="60" as="geometry" />
        </mxCell>
        <mxCell id="73vk_XXv5r2aGFsTNIzU-38" style="edgeStyle=orthogonalEdgeStyle;rounded=0;orthogonalLoop=1;jettySize=auto;html=1;exitX=0;exitY=0.5;exitDx=0;exitDy=0;entryX=0;entryY=0.5;entryDx=0;entryDy=0;" edge="1" parent="1" source="73vk_XXv5r2aGFsTNIzU-24" target="73vk_XXv5r2aGFsTNIzU-15">
          <mxGeometry relative="1" as="geometry">
            <Array as="points">
              <mxPoint x="-20" y="390" />
              <mxPoint x="-20" y="786" />
            </Array>
          </mxGeometry>
        </mxCell>
        <mxCell id="73vk_XXv5r2aGFsTNIzU-24" value="Display &#39;Grade B&#39;" style="shape=parallelogram;perimeter=parallelogramPerimeter;whiteSpace=wrap;html=1;fixedSize=1;" vertex="1" parent="1">
          <mxGeometry x="28" y="360" width="140" height="60" as="geometry" />
        </mxCell>
        <mxCell id="73vk_XXv5r2aGFsTNIzU-35" style="edgeStyle=orthogonalEdgeStyle;rounded=0;orthogonalLoop=1;jettySize=auto;html=1;exitX=1;exitY=0.5;exitDx=0;exitDy=0;entryX=1;entryY=0.5;entryDx=0;entryDy=0;" edge="1" parent="1" source="73vk_XXv5r2aGFsTNIzU-25" target="73vk_XXv5r2aGFsTNIzU-15">
          <mxGeometry relative="1" as="geometry">
            <Array as="points">
              <mxPoint x="530" y="505" />
              <mxPoint x="530" y="786" />
            </Array>
          </mxGeometry>
        </mxCell>
        <mxCell id="73vk_XXv5r2aGFsTNIzU-25" value="Display &#39;Grade C&#39;" style="shape=parallelogram;perimeter=parallelogramPerimeter;whiteSpace=wrap;html=1;fixedSize=1;" vertex="1" parent="1">
          <mxGeometry x="370" y="475" width="140" height="60" as="geometry" />
        </mxCell>
        <mxCell id="73vk_XXv5r2aGFsTNIzU-37" style="edgeStyle=orthogonalEdgeStyle;rounded=0;orthogonalLoop=1;jettySize=auto;html=1;exitX=0;exitY=0.5;exitDx=0;exitDy=0;entryX=0;entryY=0.5;entryDx=0;entryDy=0;" edge="1" parent="1" source="73vk_XXv5r2aGFsTNIzU-26" target="73vk_XXv5r2aGFsTNIzU-15">
          <mxGeometry relative="1" as="geometry">
            <Array as="points">
              <mxPoint x="10" y="615" />
              <mxPoint x="10" y="786" />
            </Array>
          </mxGeometry>
        </mxCell>
        <mxCell id="73vk_XXv5r2aGFsTNIzU-26" value="Display &#39;Grade D&#39;" style="shape=parallelogram;perimeter=parallelogramPerimeter;whiteSpace=wrap;html=1;fixedSize=1;" vertex="1" parent="1">
          <mxGeometry x="28" y="585" width="140" height="60" as="geometry" />
        </mxCell>
        <mxCell id="73vk_XXv5r2aGFsTNIzU-45" value="" style="edgeStyle=orthogonalEdgeStyle;rounded=0;orthogonalLoop=1;jettySize=auto;html=1;" edge="1" parent="1" source="73vk_XXv5r2aGFsTNIzU-27" target="73vk_XXv5r2aGFsTNIzU-15">
          <mxGeometry relative="1" as="geometry" />
        </mxCell>
        <mxCell id="73vk_XXv5r2aGFsTNIzU-27" value="Display &#39;Grade E&#39;" style="shape=parallelogram;perimeter=parallelogramPerimeter;whiteSpace=wrap;html=1;fixedSize=1;" vertex="1" parent="1">
          <mxGeometry x="200" y="678" width="140" height="60" as="geometry" />
        </mxCell>
        <mxCell id="73vk_XXv5r2aGFsTNIzU-39" value="True" style="text;html=1;strokeColor=none;fillColor=none;align=center;verticalAlign=middle;whiteSpace=wrap;rounded=0;" vertex="1" parent="1">
          <mxGeometry x="320" y="255" width="60" height="30" as="geometry" />
        </mxCell>
        <mxCell id="73vk_XXv5r2aGFsTNIzU-40" value="False" style="text;html=1;strokeColor=none;fillColor=none;align=center;verticalAlign=middle;whiteSpace=wrap;rounded=0;" vertex="1" parent="1">
          <mxGeometry x="270" y="320" width="60" height="30" as="geometry" />
        </mxCell>
        <mxCell id="73vk_XXv5r2aGFsTNIzU-41" value="False" style="text;html=1;strokeColor=none;fillColor=none;align=center;verticalAlign=middle;whiteSpace=wrap;rounded=0;" vertex="1" parent="1">
          <mxGeometry x="270" y="430" width="60" height="30" as="geometry" />
        </mxCell>
        <mxCell id="73vk_XXv5r2aGFsTNIzU-42" value="False" style="text;html=1;strokeColor=none;fillColor=none;align=center;verticalAlign=middle;whiteSpace=wrap;rounded=0;" vertex="1" parent="1">
          <mxGeometry x="270" y="540" width="60" height="30" as="geometry" />
        </mxCell>
        <mxCell id="73vk_XXv5r2aGFsTNIzU-43" value="False" style="text;html=1;strokeColor=none;fillColor=none;align=center;verticalAlign=middle;whiteSpace=wrap;rounded=0;" vertex="1" parent="1">
          <mxGeometry x="270" y="648" width="60" height="30" as="geometry" />
        </mxCell>
        <mxCell id="73vk_XXv5r2aGFsTNIzU-49" value="True" style="text;html=1;strokeColor=none;fillColor=none;align=center;verticalAlign=middle;whiteSpace=wrap;rounded=0;" vertex="1" parent="1">
          <mxGeometry x="330" y="475" width="60" height="30" as="geometry" />
        </mxCell>
        <mxCell id="73vk_XXv5r2aGFsTNIzU-50" value="True" style="text;html=1;strokeColor=none;fillColor=none;align=center;verticalAlign=middle;whiteSpace=wrap;rounded=0;" vertex="1" parent="1">
          <mxGeometry x="153" y="362" width="60" height="30" as="geometry" />
        </mxCell>
        <mxCell id="73vk_XXv5r2aGFsTNIzU-51" value="True" style="text;html=1;strokeColor=none;fillColor=none;align=center;verticalAlign=middle;whiteSpace=wrap;rounded=0;" vertex="1" parent="1">
          <mxGeometry x="153" y="585" width="60" height="30" as="geometry" />
        </mxCell>
      </root>
    </mxGraphModel>
  </diagram>
</mxfile>
